<?xml version="1.0" standalone="no"?><!DOCTYPE svg PUBLIC "-//W3C//DTD SVG 1.1//EN" "http://www.w3.org/Graphics/SVG/1.1/DTD/svg11.dtd"><svg class="icon" width="200px" height="151.14px" viewBox="0 0 1355 1024" version="1.1" xmlns="http://www.w3.org/2000/svg"><path d="M249.365634 259.605634H168.887887a31.902648 31.902648 0 0 1-31.830535-33.352113l0.014423-0.317296-0.014423-0.317295a36.914479 36.914479 0 0 1-0.036056-1.600902c0-16.939268 11.913014-31.621408 28.318648-34.909746l3.634479-0.728338 1.521577-3.389296C177.685634 168.996056 193.579268 158.647887 210.972845 158.647887c20.242028 0 37.931268 13.802366 43.015211 33.56124l1.009578 3.894084 3.836394 1.197071a32.14062 32.14062 0 0 1 16.073916 11.372169A31.585352 31.585352 0 0 1 281.239437 227.731831 31.909859 31.909859 0 0 1 249.365634 259.605634z" fill="#FFFFFF" /><path d="M249.365634 252.394366A24.69138 24.69138 0 0 0 274.028169 227.731831c0-10.86738-6.966085-20.328563-17.335887-23.544789l-7.68-2.386929-2.004733-7.788169C242.731268 177.426028 227.919324 165.859155 210.972845 165.859155a37.311099 37.311099 0 0 0-33.90738 22.095324l-3.043155 6.764169-7.276169 1.456676c-13.052394 2.61769-22.520789 14.328789-22.520789 27.835493 0 0.432676 0.014423 0.865352 0.028845 1.298028l0.028845 0.634592-0.028845 0.641802A24.684169 24.684169 0 0 0 168.887887 252.394366H249.365634m0 14.422535H168.887887a39.08507 39.08507 0 0 1-39.041802-40.887887 43.880563 43.880563 0 0 1-0.043268-1.918197c0-20.768451 14.660507-38.075493 34.109296-41.984C172.032 163.984225 190.045746 151.43662 210.972845 151.43662c24.027944 0 44.226704 16.549859 49.995718 38.976901A39.092282 39.092282 0 0 1 249.365634 266.816901z" fill="#000000" /><path d="M249.365634 259.605634H168.866254c-8.07662 0-15.785465-3.028732-21.698705-8.53093A31.823324 31.823324 0 0 1 138.687099 237.971831h38.558647c25.527887 0 46.296338-20.768451 46.296339-46.296338a46.02231 46.02231 0 0 0-8.256902-26.393239 46.671324 46.671324 0 0 0-5.57431-6.612733l1.254761-0.021634c20.242028 0 37.931268 13.802366 43.022422 33.56124l1.009578 3.894084 3.836394 1.197071a32.126197 32.126197 0 0 1 16.066704 11.364957A31.585352 31.585352 0 0 1 281.239437 227.739042 31.909859 31.909859 0 0 1 249.365634 259.605634z" opacity=".2" /><path d="M249.365634 252.394366A24.69138 24.69138 0 0 0 274.028169 227.731831c0-5.365183-1.694648-10.463549-4.903662-14.747042a24.878873 24.878873 0 0 0-12.432225-8.797747l-7.68-2.386929-2.004733-7.788169a37.513014 37.513014 0 0 0-21.316507-25.088c3.331606 7.074254 5.06231 14.804732 5.06231 22.751549 0 29.501296-23.999099 53.507606-53.507606 53.507606h-25.794704l0.634592 0.612957c4.579155 4.254648 10.542873 6.59831 16.787831 6.59831H249.365634m0 14.422535H168.887887a38.940845 38.940845 0 0 1-26.616788-10.456338A38.933634 38.933634 0 0 1 129.918197 230.760563h47.327549A39.128338 39.128338 0 0 0 216.338028 191.675493a39.056225 39.056225 0 0 0-24.850028-36.402479A50.990873 50.990873 0 0 1 210.965634 151.43662c23.530366 0 44.096901 16.030648 50.002929 38.976901a39.402366 39.402366 0 0 1 19.708395 13.932169 38.73893 38.73893 0 0 1 7.766535 23.393352A39.128338 39.128338 0 0 1 249.365634 266.816901z" opacity=".2" /><path d="M1112.626479 223.549296h-40.238873a12.34569 12.34569 0 0 1-12.316845-12.908169l0.014422-0.324507-0.014422-0.317296a14.16293 14.16293 0 0 1 11.249577-14.559549l3.634479-0.728338 1.514366-3.389296A18.655549 18.655549 0 0 1 1093.437296 180.28169c8.473239 0 15.879211 5.783437 18.013746 14.061972l1.002366 3.901296 3.843606 1.19707c5.184901 1.608113 8.667944 6.345915 8.667944 11.776 0 6.800225-5.531042 12.331268-12.331268 12.331268z" fill="#FFFFFF" /><path d="M1112.626479 216.338028a5.12 5.12 0 0 0 1.521577-10.009239l-7.687211-2.38693-2.004732-7.788169a11.43707 11.43707 0 0 0-11.03324-8.660732c-4.442141 0-8.509296 2.668169-10.369803 6.793014l-3.043155 6.764169-7.276169 1.463887a6.930028 6.930028 0 0 0-5.458929 7.175211l0.028845 0.634592-0.028845 0.649014a5.12 5.12 0 0 0 5.112789 5.372394h40.238873m0 14.422536h-40.238873a19.542535 19.542535 0 0 1-19.520902-20.458367 21.352563 21.352563 0 0 1 17.033014-21.936676A25.816338 25.816338 0 0 1 1093.430085 173.070423a25.874028 25.874028 0 0 1 24.994253 19.484845A19.549746 19.549746 0 0 1 1112.626479 230.760563z" fill="#000000" /><path d="M429.647324 663.43662H349.169577a31.902648 31.902648 0 0 1-31.830535-33.352113l0.014423-0.317296-0.014423-0.317296a36.914479 36.914479 0 0 1-0.036056-1.600901c0-16.939268 11.913014-31.621408 28.318648-34.909746l3.634479-0.728338 1.521577-3.389296C357.967324 572.827042 373.860958 562.478873 391.254535 562.478873c20.242028 0 37.931268 13.802366 43.015211 33.56124l1.009578 3.894084 3.836394 1.197071a32.14062 32.14062 0 0 1 16.073916 11.372169A31.585352 31.585352 0 0 1 461.521127 631.562817 31.909859 31.909859 0 0 1 429.647324 663.43662z" fill="#FFFFFF" /><path d="M429.647324 656.225352A24.69138 24.69138 0 0 0 454.309859 631.562817c0-10.86738-6.966085-20.328563-17.335887-23.544789l-7.68-2.386929-2.004733-7.788169C423.012958 581.257014 408.201014 569.690141 391.254535 569.690141a37.311099 37.311099 0 0 0-33.90738 22.095324l-3.043155 6.764169-7.276169 1.456676c-13.052394 2.61769-22.520789 14.328789-22.520789 27.835493 0 0.432676 0.014423 0.865352 0.028845 1.298028l0.028845 0.634592-0.028845 0.641802A24.684169 24.684169 0 0 0 349.169577 656.225352H429.647324m0 14.422535H349.169577a39.08507 39.08507 0 0 1-39.041802-40.887887 43.880563 43.880563 0 0 1-0.043268-1.918197c0-20.768451 14.660507-38.075493 34.109296-41.984C352.31369 567.815211 370.327437 555.267606 391.254535 555.267606c24.027944 0 44.226704 16.549859 49.995719 38.976901A39.092282 39.092282 0 0 1 429.647324 670.647887z" fill="#000000" /><path d="M429.647324 663.43662H348.571042h23.37893c25.527887 0 46.296338-20.768451 46.296338-46.296338a45.914141 45.914141 0 0 0-9.208789-27.70569 46.801127 46.801127 0 0 0-19.593014-15.158085 59.709296 59.709296 0 0 0-5.069521-11.264c2.257127-0.360563 4.543099-0.533634 6.865127-0.533634 20.242028 0 37.931268 13.802366 43.022422 33.56124l1.009578 3.894084 3.836394 1.197071a32.126197 32.126197 0 0 1 16.066704 11.364957A31.585352 31.585352 0 0 1 461.521127 631.570028 31.909859 31.909859 0 0 1 429.647324 663.43662z" opacity=".2" /><path d="M429.647324 656.225352A24.69138 24.69138 0 0 0 454.309859 631.562817c0-5.365183-1.694648-10.463549-4.903662-14.747042a24.878873 24.878873 0 0 0-12.432225-8.797747l-7.68-2.386929-2.004733-7.788169a37.404845 37.404845 0 0 0-29.566197-27.575888 54.026817 54.026817 0 0 1 17.090704 14.848A53.07493 53.07493 0 0 1 425.464789 617.140282 53.36338 53.36338 0 0 1 408.46062 656.225352h21.179493m0 14.422535H349.169577A38.940845 38.940845 0 0 1 318.831775 656.225352h53.118197C393.518873 656.225352 411.042254 638.694761 411.042254 617.140282c0-8.502085-2.689803-16.585915-7.773747-23.386141a39.438423 39.438423 0 0 0-19.708394-13.93938 52.389859 52.389859 0 0 0-10.997183-21.035268A51.055775 51.055775 0 0 1 391.247324 555.267606c23.530366 0 44.096901 16.030648 50.00293 38.976901a39.402366 39.402366 0 0 1 19.708394 13.932169 38.73893 38.73893 0 0 1 7.766535 23.393352A39.128338 39.128338 0 0 1 429.647324 670.647887z" opacity=".2" /><path d="M299.844507 281.239437H219.366761a31.902648 31.902648 0 0 1-31.830536-33.352113l0.014423-0.317296-0.014423-0.317296a36.914479 36.914479 0 0 1-0.036056-1.600901c0-16.939268 11.913014-31.621408 28.318648-34.909746l3.634479-0.728339 1.521577-3.389295C228.164507 190.629859 244.058141 180.28169 261.451718 180.28169c20.242028 0 37.931268 13.802366 43.015212 33.56124l1.009577 3.894084 3.836394 1.197071a32.14062 32.14062 0 0 1 16.073916 11.372169A31.585352 31.585352 0 0 1 331.71831 249.365634 31.909859 31.909859 0 0 1 299.844507 281.239437z" fill="#FFFFFF" /><path d="M299.844507 274.028169A24.69138 24.69138 0 0 0 324.507042 249.365634c0-10.86738-6.966085-20.328563-17.335887-23.544789l-7.68-2.38693-2.004732-7.788169C293.210141 199.059831 278.398197 187.492958 261.451718 187.492958a37.311099 37.311099 0 0 0-33.90738 22.095324l-3.043155 6.764169-7.276169 1.456676c-13.052394 2.61769-22.520789 14.328789-22.520789 27.835493 0 0.432676 0.014423 0.865352 0.028845 1.298028l0.028845 0.634591-0.028845 0.641803A24.684169 24.684169 0 0 0 219.366761 274.028169H299.844507m0 14.422535H219.366761a39.08507 39.08507 0 0 1-39.041803-40.887887 43.880563 43.880563 0 0 1-0.043268-1.918197c0-20.768451 14.660507-38.075493 34.109296-41.984C222.510873 185.618028 240.52462 173.070423 261.451718 173.070423c24.027944 0 44.226704 16.549859 49.995719 38.976901A39.092282 39.092282 0 0 1 299.844507 288.450704z" fill="#000000" /><path d="M299.844507 281.239437H218.768225h23.37893c25.527887 0 46.296338-20.768451 46.296338-46.296338a45.914141 45.914141 0 0 0-9.208789-27.705691 46.801127 46.801127 0 0 0-19.593014-15.158084 59.709296 59.709296 0 0 0-5.069521-11.264c2.257127-0.360563 4.543099-0.533634 6.865127-0.533634 20.242028 0 37.931268 13.802366 43.022422 33.56124l1.009578 3.894084 3.836394 1.197071a32.126197 32.126197 0 0 1 16.066704 11.364957A31.585352 31.585352 0 0 1 331.71831 249.372845 31.909859 31.909859 0 0 1 299.844507 281.239437z" opacity=".2" /><path d="M299.844507 274.028169A24.69138 24.69138 0 0 0 324.507042 249.365634c0-5.365183-1.694648-10.463549-4.903662-14.747042a24.878873 24.878873 0 0 0-12.432225-8.797747l-7.68-2.38693-2.004732-7.788169a37.404845 37.404845 0 0 0-29.566198-27.575887 54.026817 54.026817 0 0 1 17.090705 14.848A53.07493 53.07493 0 0 1 295.661972 234.943099 53.36338 53.36338 0 0 1 278.657803 274.028169h21.179493m0 14.422535H219.366761A38.940845 38.940845 0 0 1 189.028958 274.028169h53.118197C263.716056 274.028169 281.239437 256.497577 281.239437 234.943099c0-8.502085-2.689803-16.585915-7.773747-23.386141a39.438423 39.438423 0 0 0-19.708394-13.939381 52.389859 52.389859 0 0 0-10.997183-21.035267A51.055775 51.055775 0 0 1 261.444507 173.070423c23.530366 0 44.096901 16.030648 50.00293 38.976901a39.402366 39.402366 0 0 1 19.708394 13.932169 38.73893 38.73893 0 0 1 7.766535 23.393352A39.128338 39.128338 0 0 1 299.844507 288.450704z" opacity=".2" /><path d="M1208.464225 548.056338H1127.986479a31.902648 31.902648 0 0 1-31.830535-33.352113l0.014422-0.317295-0.014422-0.317296a36.914479 36.914479 0 0 1-0.036057-1.600902c0-16.939268 11.913014-31.621408 28.318648-34.909746l3.634479-0.728338 1.521578-3.389296c7.196845-16.001803 23.090479-26.342761 40.484056-26.34276 20.242028 0 37.931268 13.802366 43.015211 33.561239l1.009578 3.894084 3.836394 1.197071a32.14062 32.14062 0 0 1 16.073915 11.372169A31.585352 31.585352 0 0 1 1240.338028 516.182535a31.909859 31.909859 0 0 1-31.873803 31.873803z" fill="#FFFFFF" /><path d="M1208.464225 540.84507a24.69138 24.69138 0 0 0 24.662536-24.662535c0-10.86738-6.966085-20.328563-17.335888-23.544789l-7.68-2.386929-2.004732-7.788169c-4.26907-16.578704-19.088225-28.152789-36.034704-28.152789a37.311099 37.311099 0 0 0-33.907381 22.095324l-3.043155 6.764169-7.276169 1.456676c-13.052394 2.61769-22.520789 14.328789-22.520788 27.835493 0 0.432676 0.014423 0.865352 0.028845 1.298028l0.028845 0.634592-0.028845 0.641803A24.684169 24.684169 0 0 0 1127.986479 540.84507h80.484958m0 14.422536h-80.477747a39.08507 39.08507 0 0 1-39.041803-40.887888 43.880563 43.880563 0 0 1-0.043267-1.918197c0-20.768451 14.660507-38.075493 34.109295-41.984 8.119887-18.049803 26.133634-30.597408 47.060733-30.597408 24.027944 0 44.226704 16.549859 49.995718 38.976901A39.092282 39.092282 0 0 1 1208.464225 555.267606z" fill="#000000" /><path d="M1208.464225 548.056338H1127.387944h23.378929c25.527887 0 46.296338-20.768451 46.296338-46.296338a45.914141 45.914141 0 0 0-9.208788-27.70569 46.801127 46.801127 0 0 0-19.593015-15.158085 59.709296 59.709296 0 0 0-5.069521-11.264c2.257127-0.360563 4.543099-0.533634 6.865127-0.533633 20.242028 0 37.931268 13.802366 43.022423 33.561239l1.009577 3.894084 3.836394 1.197071a32.126197 32.126197 0 0 1 16.066705 11.364958 31.585352 31.585352 0 0 1 6.331493 19.073802 31.909859 31.909859 0 0 1-31.873803 31.873803z" opacity=".2" /><path d="M1208.464225 540.84507a24.69138 24.69138 0 0 0 24.662536-24.662535c0-5.365183-1.694648-10.463549-4.903662-14.747042a24.878873 24.878873 0 0 0-12.432226-8.797747l-7.68-2.386929-2.004732-7.788169a37.404845 37.404845 0 0 0-29.566197-27.575887 54.026817 54.026817 0 0 1 17.090704 14.848A53.07493 53.07493 0 0 1 1204.28169 501.76a53.36338 53.36338 0 0 1-17.004169 39.08507h21.179493m0 14.422536h-80.477746A38.940845 38.940845 0 0 1 1097.648676 540.84507h53.118197c21.554479 0 39.08507-17.530592 39.085071-39.08507 0-8.502085-2.689803-16.585915-7.773747-23.386141a39.438423 39.438423 0 0 0-19.708394-13.93938 52.389859 52.389859 0 0 0-10.997183-21.035268 51.055775 51.055775 0 0 1 18.684394-3.511887c23.530366 0 44.096901 16.030648 50.00293 38.976901a39.402366 39.402366 0 0 1 19.708394 13.932169 38.73893 38.73893 0 0 1 7.766535 23.393352 39.128338 39.128338 0 0 1-39.08507 39.085071z" opacity=".2" /><path d="M299.556056 967.355493q52.029296-8.141521 100.049127-13.852845l-12.331268-24.655324c4.276282-1.442254 22.823662 12.836056 22.823662 12.836056l-15.691718-71.319436c21.395831 2.884507 31.383437 75.595718 31.383437 75.595718l24.251493-24.244282-11.934648 27.453296a2210.715042 2210.715042 0 0 1 253.55538-12.771155l-10.550084-21.100169c4.276282-1.442254 22.823662 12.836056 22.823662 12.836056l-15.691719-71.319436c21.395831 2.884507 31.376225 75.595718 31.376226 75.595718l24.251493-24.244282-12.641353 29.075831a1423.02107 1423.02107 0 0 1 145.523381 11.71831c-10.528451-32.796845-47.298704-64.331718-47.298704-64.331718 28.268169 8.797746 42.979155 23.126535 50.594253 36.40969a572.769352 572.769352 0 0 0-30.626253-198.309859s57.055549 128.360563 48.495774 213.951099l-1.088901 15.201352a584.58862 584.58862 0 0 1 74.542873 15.460957z" fill="#F83E3E" /><path d="M1238.816451 924.361915h-28.123944v-28.123943h28.123944z m-25.960564-2.16338h23.797183v-23.797183h-23.797183z" fill="#3F3D56" /><path d="M285.494085 925.912338l-19.203606-20.588169 20.588169-19.203606 19.203606 20.588169z m-16.146029-20.487211l16.254198 17.422422 17.422422-16.254197-16.254197-17.422422z" fill="#3F3D56" /><path d="M85.136225 965.906028h1223.571831v2.855662H85.136225z" fill="#3F3D56" /><path d="M843.696676 288.183887v93.681578a3.273915 3.273915 0 0 1-3.266704 3.266704h-2.322028l3.100845 527.482592a50.925972 50.925972 0 0 1-50.918761 50.91876H485.296676a50.911549 50.911549 0 0 1-50.904338-50.91876l-3.100845-510.377465h-1.680225a2.307606 2.307606 0 0 1-2.307606-2.293183v-53.320113a2.307606 2.307606 0 0 1 2.307606-2.307606h1.680225v-20.08338h-1.694648a2.422986 2.422986 0 0 1-2.408563-2.422986v-52.591774a2.415775 2.415775 0 0 1 2.408563-2.408564h1.694648v-27.402817h-1.723493a2.16338 2.16338 0 0 1-2.16338-2.16338v-28.700845a2.16338 2.16338 0 0 1 2.16338-2.16338h1.723493V148.270873a50.911549 50.911549 0 0 1 50.904338-50.904338h304.942873a50.918761 50.918761 0 0 1 50.918761 50.904338V284.888338h2.322028a3.273915 3.273915 0 0 1 3.317183 3.295549z"  /><path d="M596.205972 123.50738m5.769014 0l45.265127 0q5.769014 0 5.769014 5.769014l0-0.007211q0 5.769014-5.769014 5.769014l-45.265127 0q-5.769014 0-5.769014-5.769014l0 0.007211q0-5.769014 5.769014-5.769014Z" fill="#E6E8EC" /><path d="M668.138366 129.276394m-6.54062 0a6.54062 6.54062 0 1 0 13.08124 0 6.54062 6.54062 0 1 0-13.08124 0Z" fill="#E6E8EC" /><path d="M813.705014 159.722366v749.048789a34.145352 34.145352 0 0 1-11.350535 25.6 31.534873 31.534873 0 0 1-20.955944 8.040563h-291.912112a31.181521 31.181521 0 0 1-14.920113-3.785915 29.998873 29.998873 0 0 1-3.136902-1.93262 34.087662 34.087662 0 0 1-14.249464-27.922028V159.722366a32.998761 32.998761 0 0 1 32.306479-33.654986h43.700281v5.841127a27.172056 27.172056 0 0 0 26.602366 27.712901h148.458367a27.172056 27.172056 0 0 0 26.602366-27.712901v-5.841127h46.555943a32.991549 32.991549 0 0 1 32.299268 33.654986z" fill="#FFFFFF" /><path d="M1098.095775 788.797296a17.119549 17.119549 0 1 1 17.119549-17.11955 17.119549 17.119549 0 0 1-17.119549 17.11955z m0-31.383437a14.263887 14.263887 0 1 0 14.263887 14.263887 14.263887 14.263887 0 0 0-14.263887-14.256676z" fill="#3F3D56" /><path d="M835.043155 509.108282v41.580169s3.324394 46.570366 21.633803 69.855549c0 0 29.941183 42.416676 34.094873 33.265577l-5.12-30.121464-17.307042-16.456113-9.151099-51.560563-2.495098-46.570367z" fill="#FFB8B8" /><path d="M1018.836732 885.010028v30.770479l-24.950986 9.151099v-35.760676z" fill="#FFB8B8" /><path d="M968.105465 881.685634l16.636394 37.426479-23.285183 9.980394-4.990197-36.589972z" fill="#FFB8B8" /><path d="M1009.692845 594.77093s33.265577 300.226704 20.790085 301.056-36.589972 16.629183-36.589972 5.819493-19.124282-151.357296-19.124282-151.357296l-18.294986-72.350648V777.699155l19.124282 113.101521s-18.294986 24.114479-31.599775 9.980394l-28.27538-110.606422s-37.426479-168.022535-35.760676-181.298479c-0.007211 0.028845 85.648225-73.151099 129.730704-14.105239z" fill="#2F2E41" /><path d="M1003.029634 917.44631a14.083606 14.083606 0 0 1 21.633803-4.990197l12.475493 14.970591s32.162254 26.638423 9.374647 32.342535a62.016901 62.016901 0 0 1-37.613971-0.374985 18.186817 18.186817 0 0 0-7.485296-2.495099 18.114704 18.114704 0 0 1-10.816902-7.485296c0-1.665803 2.495099-31.131042 2.495099-31.131042a5.242592 5.242592 0 0 1 5.819493 0.829296c2.459042 2.487887 4.117634-1.665803 4.117634-1.665803z" fill="#2F2E41" /><path d="M953.97138 912.456113s15.799887-12.475493 23.285183 1.665802c0 0 4.716169 1.665803 5.264226 0s4.708958-2.495099 4.708957 6.656 4.514254 31.967549 0.360564 32.796846-8.314592 3.324394-7.485296 6.656-4.514254 3.793127-23.645746 2.963831-19.960789-8.314592-19.960789-8.314592a30.09262 30.09262 0 0 1 4.990197-16.636394 134.850704 134.850704 0 0 0 12.482704-25.787493z" fill="#2F2E41" /><path d="M923.164845 367.724169s-4.160901 30.770479 22.455887 41.580169-59.045859 46.570366-67.36045 25.780282 1.665803-27.446085 1.665803-27.446085 8.314592-8.314592 0.829295-30.770479z" fill="#FFB8B8" /><path d="M896.584113 352.753577m-36.589972 0a36.589972 36.589972 0 1 0 73.179944 0 36.589972 36.589972 0 1 0-73.179944 0Z" fill="#FFB8B8" /><path d="M939.000789 419.291944s-24.950986 13.304789-49.03662 3.324394-23.285183 33.265577-23.285183 33.265577l12.475493 32.450705 86.491944-8.314592-5.819493-49.901972z" fill="#F2F2F2" /><path d="M926.60462 390.800225a30.193577 30.193577 0 0 1 20.71076 15.980169l39.921578 12.475493 9.980394 14.141296-11.646197 102.349521s21.633803 20.790085 21.633803 32.450704 26.609577 51.560563 13.304788 46.570367a233.565746 233.565746 0 0 1-37.426478-22.455888s-60.711662 2.495099-79.835944 19.124282-26.609577 11.646197-26.609578 11.646197-19.960789-86.491944-20.790084-99.796732-24.114479-93.147944-24.114479-93.147944l41.580169-23.285183 10.593352-12.013972 29.328226 46.945352 26.609577-32.450704s-13.160563-10.362592-13.239887-18.532958z" fill="#F83E3E" /><path d="M1009.685634 497.462085l4.990197 26.609577s22.455887 83.167549 19.124282 111.44293c0 0 2.495099 63.206761-11.646198 55.721464s-6.656-53.226366-6.656-53.226366l-19.960788-82.331042-10.816902-48.236169z" fill="#FFB8B8" /><path d="M988.895549 428.435831l8.314592 4.990197s31.599775 65.701859 24.114479 70.670423a318.658704 318.658704 0 0 1-39.921578 15.799887z" fill="#F83E3E" /><path d="M851.672338 430.101634l-19.542535-0.418254-4.571944 7.932395 5.819493 80.636394 29.941183 6.656z" fill="#F83E3E" /><path d="M926.38107 321.810028l6.59831-2.401352a46.873239 46.873239 0 0 0-32.977126-12.590873l5.394028-5.394028a24.475042 24.475042 0 0 0-25.181747 7.79538 107.130592 107.130592 0 0 0-18.143549 23.162591h-7.067042l2.949408 5.898817-10.319324 5.898817 10.593352-1.060056a29.75369 29.75369 0 0 0 1.002366 15.273465l2.401353 6.59831a190.204394 190.204394 0 0 0 9.590986-21.583324v5.992563s6.59831-5.394028 6.598309-8.992451l3.605634 4.196958 1.795606-6.59831 22.181859 6.59831-3.605634-5.394028 13.787944 1.795606-5.394028-6.59831s15.590761 7.79538 16.189295 14.422535a55.63493 55.63493 0 0 0 4.716169 15.194141l4.990198-5.819493s7.68-27.402817-9.706367-36.395268z" fill="#2F2E41" /><path d="M924.441239 353.171831a7.485296 2.913352 90 1 0 5.826705 0 7.485296 2.913352 90 1 0-5.826705 0Z" fill="#FFB8B8" /><path d="M113.60631 920.821183c17.725296 32.876169 55.35369 46.98862 55.35369 46.98862s8.884282-39.193239-8.848225-72.069409-55.35369-46.98862-55.35369-46.988619-8.87707 39.193239 8.848225 72.069408z"  /><path d="M125.793352 910.004282c32.003606 19.254085 44.334873 57.502648 44.334873 57.502648s-39.561014 7.023775-71.571831-12.259155S54.221521 897.745127 54.221521 897.745127s39.561014-6.99493 71.571831 12.259155z" fill="#267EF0" /><path d="M548.251042 258.293183h174.375662v174.375662H548.251042z" fill="#FFFFFF" fill-opacity="0.01" /><path d="M635.442479 398.025915a15.24462 15.24462 0 1 0-15.24462-15.244619 15.24462 15.24462 0 0 0 15.24462 15.244619z"  /><path d="M288.450704 706.711437h281.239437v281.239436H288.450704z" fill="#FFFFFF" fill-opacity="0.01" /><path d="M428.176225 964.658479a116.440338 116.440338 0 1 0-116.440338-116.440338 116.440338 116.440338 0 0 0 116.440338 116.440338z" fill="#4B89FF" /><path d="M311.735887 872.39031l22.614536 19.975211 20.191549-2.271549 15.215774-46.289127 19.189184 2.44462 29.998873 13.701408 15.446535-8.653521 4.276282-44.854084 28.542197-8.934761 9.518873-22.852507-14.530704-12.713465-8.271324-25.960563-47.486197-3.69938-32.227155 10.01645-19.621859 16.283043-27.604733 32.739154-18.388732 43.85893z" fill="#FFFFFF" /><path d="M457.425127 960.872563q-16.384-16.744563-11.797634-31.167098c4.586366-14.422535 12.143775-13.542761 15.439324-22.434254s-6.014197-21.554479 14.646084-32.37138q20.65307-10.816901 56.810367 25.102423" fill="#FFFFFF" /><path d="M471.970254 954.079549l28.989295-13.03076 22.282817-29.342648-12.569239-7.211268-41.248451 32.616564z" fill="#FFFFFF" /></svg>