<?xml version="1.0" standalone="no"?><!DOCTYPE svg PUBLIC "-//W3C//DTD SVG 1.1//EN" "http://www.w3.org/Graphics/SVG/1.1/DTD/svg11.dtd"><svg class="icon" width="200px" height="200.00px" viewBox="0 0 1024 1024" version="1.1" xmlns="http://www.w3.org/2000/svg"><path d="M175.494337 203.066297c139.55295-80.74899 267.720238-90.791287 404.196118-75.248792 136.475881 15.542495 276.368475 59.366653 330.878733 103.383445 54.505188 44.021861 74.473188 125.100356 42.465584 182.976634-21.336713 38.587564-13.09402 68.070653 24.72301 88.449267 66.418059 42.881267 61.29299 99.099881-15.370138 168.650773-32.62099 20.135287-41.056317 14.802376-87.511446 26.446574-41.684911-2.205149-20.140356 38.405069 0 50.98202 18.06701 20.657426 6.052752 45.998891-26.248871 62.276435-19.75002 9.95105-59.589703 22.416475-90.70004 28.803802-110.66804 22.720634-261.180832 20.591525-451.533307-6.387326-137.515089-44.569347-184.76103-89.792634-141.732752-135.669862 24.555723-48.077307-46.713663-45.628832-79.699644-59.68095-53.400079-5.637069-153.088-127.320713-14.736475-200.617822 27.465505-16.292752 62.291644-4.39002 54.094574-46.115485-8.207208-41.730535-88.378297-107.499723 51.174654-188.248713z" fill="#FEF6F0" /><path d="M359.920792 788.277228c-37.735921 0-68.435644-30.699723-68.435643-68.435644V273.742574c0-37.735921 30.699723-68.435644 68.435643-68.435643h324.435644c37.735921 0 68.435644 30.699723 68.435643 68.435643v446.09901c0 37.735921-30.699723 68.435644-68.435643 68.435644H359.920792z" fill="#FBD8B1" /><path d="M684.356436 217.980198c30.745347 0 55.762376 25.01703 55.762376 55.762376v446.09901c0 30.745347-25.01703 55.762376-55.762376 55.762376H359.920792c-30.745347 0-55.762376-25.01703-55.762376-55.762376V273.742574c0-30.745347 25.01703-55.762376 55.762376-55.762376h324.435644m0-25.346535H359.920792c-44.797465 0-81.108911 36.311446-81.108911 81.108911v446.09901c0 44.797465 36.311446 81.108911 81.108911 81.108911h324.435644c44.797465 0 81.108911-36.311446 81.108911-81.108911V273.742574c0-44.797465-36.311446-81.108911-81.108911-81.108911z" fill="#F39926" /><path d="M740.118812 699.564356v25.346535c0 27.997782-22.695287 50.693069-50.693069 50.693069H354.851485c-27.997782 0-50.693069-22.695287-50.693069-50.693069v-25.346535c0 27.997782 22.695287 50.693069 50.693069 50.69307h334.574258c27.997782 0 50.693069-22.695287 50.693069-50.69307z" fill="#F6C38A" /><path d="M473.295842 446.09901H615.920792a17.742574 17.742574 0 1 1 0 35.485148H473.295842a17.742574 17.742574 0 1 1 0-35.485148zM387.80198 446.09901h21.50907a17.742574 17.742574 0 1 1 0 35.485148H387.80198a17.742574 17.742574 0 1 1 0-35.485148zM108.513584 483.333069l10.02202-10.022019a8.830733 8.830733 0 0 1 12.485703 12.485702l-10.02202 10.02202 9.971327 9.971327a8.840871 8.840871 0 1 1-12.51105 12.51105l-9.971326-9.971327-10.02202 10.02202a8.830733 8.830733 0 0 1-12.485703-12.485703l10.02202-10.02202-9.971327-9.971327a8.840871 8.840871 0 1 1 12.511049-12.511049l9.971327 9.971326zM867.687921 628.426772l10.02202-10.02202a8.830733 8.830733 0 0 1 12.485703 12.485703l-10.02202 10.02202 9.971326 9.971327a8.840871 8.840871 0 1 1-12.511049 12.511049l-9.971327-9.971326-10.02202 10.02202a8.830733 8.830733 0 0 1-12.485703-12.485703l10.02202-10.02202-9.971326-9.971327a8.840871 8.840871 0 1 1 12.511049-12.511049l9.971327 9.971326z" fill="#EE9931" /><path d="M845.342416 385.267327h48.087445a8.906772 8.906772 0 0 1 0 17.813544h-48.087445a8.906772 8.906772 0 0 1 0-17.813544z m0 32.879524h48.087445a8.906772 8.906772 0 0 1 0 17.813545h-48.087445a8.906772 8.906772 0 0 1 0-17.813545z" fill="#E59433" /><path d="M420.118812 268.673267H359.920792a15.207921 15.207921 0 1 0 0 30.415842h60.19802a15.207921 15.207921 0 1 0 0-30.415842zM481.584158 268.673267h-5.069307a15.207921 15.207921 0 1 0 0 30.415842h5.069307a15.207921 15.207921 0 1 0 0-30.415842z" fill="#FFFFFF" /><path d="M387.80198 532.277228h141.940594a17.742574 17.742574 0 1 1 0 35.485148h-141.940594a17.742574 17.742574 0 1 1 0-35.485148z" fill="#EE9931" /></svg>