<?xml version="1.0" standalone="no"?><!DOCTYPE svg PUBLIC "-//W3C//DTD SVG 1.1//EN" "http://www.w3.org/Graphics/SVG/1.1/DTD/svg11.dtd"><svg class="icon" width="200px" height="200.00px" viewBox="0 0 1024 1024" version="1.1" xmlns="http://www.w3.org/2000/svg"><path fill="#1296db" d="M449.536 625.152c-9.728 33.28 9.728 67.584 42.496 77.312 33.28 9.728 67.584-9.728 77.312-42.496 9.728-33.28-9.728-67.584-42.496-77.312-33.28-9.728-67.584 9.216-77.312 42.496zM233.472 388.096c0 24.576 19.968 44.544 44.544 44.544s44.544-19.968 44.544-44.544c0-24.576-19.968-44.544-44.544-44.544s-44.544 19.968-44.544 44.544zM481.792 312.32c0 17.408 13.824 31.232 31.232 31.232 17.408 0 31.232-13.824 31.232-31.232 0-17.408-13.824-31.232-31.232-31.232-17.408 0-31.232 13.824-31.232 31.232zM375.296 249.856c0 9.216 7.168 16.384 16.384 16.384 8.704 0 16.384-7.168 16.384-16.384 0-8.704-7.168-16.384-16.384-16.384-9.216 0-16.384 7.168-16.384 16.384z m385.024 519.168c-4.608 16.384 4.608 33.792 21.504 38.4 16.384 4.608 33.792-4.608 38.4-21.504 4.608-16.384-4.608-33.792-21.504-38.4-16.384-4.608-33.792 5.12-38.4 21.504z m-146.944-74.752c-2.56 8.704 2.56 17.92 11.264 20.48 8.704 2.56 17.92-2.56 20.48-11.264 2.56-8.704-2.56-17.92-11.264-20.48-8.704-2.048-17.92 2.56-20.48 11.264z m25.6-261.632c0 24.576 19.968 44.544 44.544 44.544 24.576 0 44.544-19.968 44.544-44.544 0-24.576-19.968-44.544-44.544-44.544-24.064 0-44.544 19.968-44.544 44.544z"  /></svg>