<?xml version="1.0" standalone="no"?><!DOCTYPE svg PUBLIC "-//W3C//DTD SVG 1.1//EN" "http://www.w3.org/Graphics/SVG/1.1/DTD/svg11.dtd"><svg class="icon" width="200px" height="200.00px" viewBox="0 0 1024 1024" version="1.1" xmlns="http://www.w3.org/2000/svg"><path d="M775.68 592.384c84.48 0 153.6 68.608 153.6 153.6 0 84.48-68.608 153.6-153.6 153.6-84.48 0-153.6-68.608-153.6-153.6s68.608-153.6 153.6-153.6z" fill="#92D8FF" /><path d="M512 925.184c-231.424 0-419.84-188.416-419.84-419.84s188.416-419.84 419.84-419.84 419.84 188.416 419.84 419.84-188.416 419.84-419.84 419.84z m0-779.264c-197.12 0-357.888 161.28-357.888 359.936s160.768 359.936 357.888 359.936c197.12 0 357.888-161.28 357.888-359.936S709.12 145.92 512 145.92z m169.984 413.184c-30.208 0-55.296-25.088-55.296-55.296 0-30.72 24.576-55.296 55.296-55.296 30.208 0 55.296 25.088 55.296 55.296s-24.576 55.296-55.296 55.296z m-158.72 0c-30.208 0-55.296-25.088-55.296-55.296 0-30.72 24.576-55.296 55.296-55.296 30.208 0 55.296 25.088 55.296 55.296s-25.088 55.296-55.296 55.296z m-175.616 0c-30.208 0-55.296-25.088-55.296-55.296 0-30.72 24.576-55.296 55.296-55.296s55.296 25.088 55.296 55.296c-0.512 30.208-25.088 55.296-55.296 55.296z" fill="#333333" /></svg>