<?xml version="1.0" standalone="no"?><!DOCTYPE svg PUBLIC "-//W3C//DTD SVG 1.1//EN" "http://www.w3.org/Graphics/SVG/1.1/DTD/svg11.dtd"><svg class="icon" width="200px" height="200.00px" viewBox="0 0 1024 1024" version="1.1" xmlns="http://www.w3.org/2000/svg"><path d="M298.666667 315.733333m68.266666 0l85.333334 0q68.266667 0 68.266666 68.266667l0 85.333333q0 68.266667-68.266666 68.266667l-85.333334 0q-68.266667 0-68.266666-68.266667l0-85.333333q0-68.266667 68.266666-68.266667Z" fill="#3F85EF" fill-opacity=".1" /><path d="M298.666667 588.8m68.266666 0l85.333334 0q68.266667 0 68.266666 68.266667l0 85.333333q0 68.266667-68.266666 68.266667l-85.333334 0q-68.266667 0-68.266666-68.266667l0-85.333333q0-68.266667 68.266666-68.266667Z" fill="#3F85EF" fill-opacity=".1" /><path d="M571.733333 588.8m68.266667 0l85.333333 0q68.266667 0 68.266667 68.266667l0 85.333333q0 68.266667-68.266667 68.266667l-85.333333 0q-68.266667 0-68.266667-68.266667l0-85.333333q0-68.266667 68.266667-68.266667Z" fill="#3F85EF" fill-opacity=".1" /><path d="M315.733333 298.666667a34.133333 34.133333 0 0 0-34.133333 34.133333v85.333333a34.133333 34.133333 0 0 0 34.133333 34.133334h85.333334a34.133333 34.133333 0 0 0 34.133333-34.133334V332.8a34.133333 34.133333 0 0 0-34.133333-34.133333H315.733333z m0-34.133334h85.333334a68.266667 68.266667 0 0 1 68.266666 68.266667v85.333333a68.266667 68.266667 0 0 1-68.266666 68.266667H315.733333a68.266667 68.266667 0 0 1-68.266666-68.266667V332.8a68.266667 68.266667 0 0 1 68.266666-68.266667zM315.733333 571.733333a34.133333 34.133333 0 0 0-34.133333 34.133334v85.333333a34.133333 34.133333 0 0 0 34.133333 34.133333h85.333334a34.133333 34.133333 0 0 0 34.133333-34.133333V605.866667a34.133333 34.133333 0 0 0-34.133333-34.133334H315.733333z m0-34.133333h85.333334a68.266667 68.266667 0 0 1 68.266666 68.266667v85.333333a68.266667 68.266667 0 0 1-68.266666 68.266667H315.733333a68.266667 68.266667 0 0 1-68.266666-68.266667V605.866667a68.266667 68.266667 0 0 1 68.266666-68.266667zM588.8 571.733333a34.133333 34.133333 0 0 0-34.133333 34.133334v85.333333a34.133333 34.133333 0 0 0 34.133333 34.133333h85.333333a34.133333 34.133333 0 0 0 34.133334-34.133333V605.866667a34.133333 34.133333 0 0 0-34.133334-34.133334H588.8z m0-34.133333h85.333333a68.266667 68.266667 0 0 1 68.266667 68.266667v85.333333a68.266667 68.266667 0 0 1-68.266667 68.266667H588.8a68.266667 68.266667 0 0 1-68.266667-68.266667V605.866667a68.266667 68.266667 0 0 1 68.266667-68.266667z" fill="#4C4C4C" /><path d="M665.6 252.716575m48.271823 48.271823l60.339779 60.339779q48.271823 48.271823 0 96.543646l-60.339779 60.339779q-48.271823 48.271823-96.543646 0l-60.339779-60.339779q-48.271823-48.271823 0-96.543646l60.339779-60.339779q48.271823-48.271823 96.543646 0Z" fill="#3F85EF" fill-opacity=".1" /><path d="M631.466667 218.583242m48.271823 48.271823l60.339778 60.339779q48.271823 48.271823 0 96.543646l-60.339778 60.339778q-48.271823 48.271823-96.543646 0l-60.339779-60.339778q-48.271823-48.271823 0-96.543646l60.339779-60.339779q48.271823-48.271823 96.543646 0Z" fill="#819DC8" /></svg>