<?xml version="1.0" standalone="no"?><!DOCTYPE svg PUBLIC "-//W3C//DTD SVG 1.1//EN" "http://www.w3.org/Graphics/SVG/1.1/DTD/svg11.dtd"><svg class="icon" width="200px" height="200.00px" viewBox="0 0 1024 1024" version="1.1" xmlns="http://www.w3.org/2000/svg"><path fill="#1296db" d="M783.936 60.864a104.064 104.064 0 0 1 63.232 49.728l154.88 274.944a103.68 103.68 0 0 1 9.536 79.808 104.128 104.128 0 0 1-44.864 60.416l-4.8 2.816-274.944 154.88a104.32 104.32 0 0 1-65.28 12.544v-186.24a108.416 108.416 0 0 0-108.16-108.224H407.68l-18.624-33.152a103.68 103.68 0 0 1-9.6-79.808 104.896 104.896 0 0 1 49.664-63.296l274.88-154.816a103.68 103.68 0 0 1 79.808-9.6z m50.112 324.864a57.152 57.152 0 0 0 55.936 99.584 57.152 57.152 0 0 0-55.936-99.584z m-166.464-58.432a56.576 56.576 0 0 0-26.944 34.368 56.448 56.448 0 0 0 5.248 43.392 56.448 56.448 0 0 0 34.368 26.88c4.992 1.536 10.24 2.24 15.36 2.24a57.28 57.28 0 0 0 35.2-102.144 56.576 56.576 0 0 0-19.84-10.048 56.384 56.384 0 0 0-43.392 5.312z m-166.592-58.688a57.152 57.152 0 0 0 55.936 99.52 57.152 57.152 0 0 0-55.936-99.584zM490.24 425.6a108.416 108.416 0 0 1 108.16 108.16v325.12a108.416 108.416 0 0 1-108.288 108.224H165.12a108.352 108.352 0 0 1-108.224-108.16V533.76a108.416 108.416 0 0 1 108.16-108.288h325.12z m-282.432 348.608a58.816 58.816 0 0 0 0 117.632 58.944 58.944 0 0 0 41.6-100.416 58.816 58.816 0 0 0-41.6-17.28z m239.744 0a58.816 58.816 0 0 0 0 117.632 58.88 58.88 0 0 0 0-117.632zM327.68 637.44a58.88 58.88 0 0 0 0 117.632 58.88 58.88 0 0 0 0-117.632zM207.808 500.672a58.88 58.88 0 1 0 0 117.696 58.88 58.88 0 0 0 0-117.696z m239.744 0a58.88 58.88 0 1 0 0 117.696 58.88 58.88 0 0 0 0-117.696z" /></svg>